<svg id="visual" viewBox="0 0 900 600" width="900" height="600" xmlns="http://www.w3.org/2000/svg" xmlns:xlink="http://www.w3.org/1999/xlink" version="1.1"><path d="M0 381L11.5 376.2C23 371.3 46 361.7 69 353.8C92 346 115 340 138.2 349.3C161.3 358.7 184.7 383.3 207.8 386.5C231 389.7 254 371.3 277 369.8C300 368.3 323 383.7 346 384.3C369 385 392 371 415.2 372.7C438.3 374.3 461.7 391.7 484.8 398.3C508 405 531 401 554 395C577 389 600 381 623 368C646 355 669 337 692.2 335.2C715.3 333.3 738.7 347.7 761.8 350.3C785 353 808 344 831 340.5C854 337 877 339 888.5 340L900 341L900 601L888.5 601C877 601 854 601 831 601C808 601 785 601 761.8 601C738.7 601 715.3 601 692.2 601C669 601 646 601 623 601C600 601 577 601 554 601C531 601 508 601 484.8 601C461.7 601 438.3 601 415.2 601C392 601 369 601 346 601C323 601 300 601 277 601C254 601 231 601 207.8 601C184.7 601 161.3 601 138.2 601C115 601 92 601 69 601C46 601 23 601 11.5 601L0 601Z" fill="#3b327e"></path><path d="M0 389L11.5 389.7C23 390.3 46 391.7 69 397.7C92 403.7 115 414.3 138.2 409.8C161.3 405.3 184.7 385.7 207.8 388C231 390.3 254 414.7 277 426.7C300 438.7 323 438.3 346 425C369 411.7 392 385.3 415.2 375C438.3 364.7 461.7 370.3 484.8 373.8C508 377.3 531 378.7 554 388.2C577 397.7 600 415.3 623 414C646 412.7 669 392.3 692.2 382.7C715.3 373 738.7 374 761.8 380.7C785 387.3 808 399.7 831 396.3C854 393 877 374 888.5 364.5L900 355L900 601L888.5 601C877 601 854 601 831 601C808 601 785 601 761.8 601C738.7 601 715.3 601 692.2 601C669 601 646 601 623 601C600 601 577 601 554 601C531 601 508 601 484.8 601C461.7 601 438.3 601 415.2 601C392 601 369 601 346 601C323 601 300 601 277 601C254 601 231 601 207.8 601C184.7 601 161.3 601 138.2 601C115 601 92 601 69 601C46 601 23 601 11.5 601L0 601Z" fill="#5d5093"></path><path d="M0 449L11.5 449.3C23 449.7 46 450.3 69 448.2C92 446 115 441 138.2 433.2C161.3 425.3 184.7 414.7 207.8 415.7C231 416.7 254 429.3 277 433C300 436.7 323 431.3 346 428.5C369 425.7 392 425.3 415.2 431C438.3 436.7 461.7 448.3 484.8 448.8C508 449.3 531 438.7 554 437.8C577 437 600 446 623 449.2C646 452.3 669 449.7 692.2 439.8C715.3 430 738.7 413 761.8 414.3C785 415.7 808 435.3 831 436C854 436.7 877 418.3 888.5 409.2L900 400L900 601L888.5 601C877 601 854 601 831 601C808 601 785 601 761.8 601C738.7 601 715.3 601 692.2 601C669 601 646 601 623 601C600 601 577 601 554 601C531 601 508 601 484.8 601C461.7 601 438.3 601 415.2 601C392 601 369 601 346 601C323 601 300 601 277 601C254 601 231 601 207.8 601C184.7 601 161.3 601 138.2 601C115 601 92 601 69 601C46 601 23 601 11.5 601L0 601Z" fill="#7d70a8"></path><path d="M0 444L11.5 447.8C23 451.7 46 459.3 69 461C92 462.7 115 458.3 138.2 457.8C161.3 457.3 184.7 460.7 207.8 465.8C231 471 254 478 277 475C300 472 323 459 346 460.2C369 461.3 392 476.7 415.2 477.3C438.3 478 461.7 464 484.8 453.5C508 443 531 436 554 434.5C577 433 600 437 623 441.5C646 446 669 451 692.2 452.2C715.3 453.3 738.7 450.7 761.8 451.2C785 451.7 808 455.3 831 458.8C854 462.3 877 465.7 888.5 467.3L900 469L900 601L888.5 601C877 601 854 601 831 601C808 601 785 601 761.8 601C738.7 601 715.3 601 692.2 601C669 601 646 601 623 601C600 601 577 601 554 601C531 601 508 601 484.8 601C461.7 601 438.3 601 415.2 601C392 601 369 601 346 601C323 601 300 601 277 601C254 601 231 601 207.8 601C184.7 601 161.3 601 138.2 601C115 601 92 601 69 601C46 601 23 601 11.5 601L0 601Z" fill="#9d92be"></path><path d="M0 503L11.5 500C23 497 46 491 69 490.2C92 489.3 115 493.7 138.2 491.3C161.3 489 184.7 480 207.8 476.8C231 473.7 254 476.3 277 477.8C300 479.3 323 479.7 346 480.8C369 482 392 484 415.2 483.5C438.3 483 461.7 480 484.8 483.2C508 486.3 531 495.7 554 495.8C577 496 600 487 623 489.2C646 491.3 669 504.7 692.2 503.7C715.3 502.7 738.7 487.3 761.8 481C785 474.7 808 477.3 831 481.2C854 485 877 490 888.5 492.5L900 495L900 601L888.5 601C877 601 854 601 831 601C808 601 785 601 761.8 601C738.7 601 715.3 601 692.2 601C669 601 646 601 623 601C600 601 577 601 554 601C531 601 508 601 484.8 601C461.7 601 438.3 601 415.2 601C392 601 369 601 346 601C323 601 300 601 277 601C254 601 231 601 207.8 601C184.7 601 161.3 601 138.2 601C115 601 92 601 69 601C46 601 23 601 11.5 601L0 601Z" fill="#bdb5d3"></path><path d="M0 507L11.5 506.8C23 506.7 46 506.3 69 506.7C92 507 115 508 138.2 512.5C161.3 517 184.7 525 207.8 528.7C231 532.3 254 531.7 277 529.7C300 527.7 323 524.3 346 526C369 527.7 392 534.3 415.2 532C438.3 529.7 461.7 518.3 484.8 514.5C508 510.7 531 514.3 554 518.3C577 522.3 600 526.7 623 530.2C646 533.7 669 536.3 692.2 532.2C715.3 528 738.7 517 761.8 514.2C785 511.3 808 516.7 831 522.5C854 528.3 877 534.7 888.5 537.8L900 541L900 601L888.5 601C877 601 854 601 831 601C808 601 785 601 761.8 601C738.7 601 715.3 601 692.2 601C669 601 646 601 623 601C600 601 577 601 554 601C531 601 508 601 484.8 601C461.7 601 438.3 601 415.2 601C392 601 369 601 346 601C323 601 300 601 277 601C254 601 231 601 207.8 601C184.7 601 161.3 601 138.2 601C115 601 92 601 69 601C46 601 23 601 11.5 601L0 601Z" fill="#ded9e9"></path><path d="M0 561L11.5 561.2C23 561.3 46 561.7 69 562.2C92 562.7 115 563.3 138.2 564.8C161.3 566.3 184.7 568.7 207.8 565C231 561.3 254 551.7 277 551.3C300 551 323 560 346 563.8C369 567.7 392 566.3 415.2 564.2C438.3 562 461.7 559 484.8 559.2C508 559.3 531 562.7 554 564.7C577 566.7 600 567.3 623 564.5C646 561.7 669 555.3 692.2 552C715.3 548.7 738.7 548.3 761.8 546.2C785 544 808 540 831 542C854 544 877 552 888.5 556L900 560L900 601L888.5 601C877 601 854 601 831 601C808 601 785 601 761.8 601C738.7 601 715.3 601 692.2 601C669 601 646 601 623 601C600 601 577 601 554 601C531 601 508 601 484.8 601C461.7 601 438.3 601 415.2 601C392 601 369 601 346 601C323 601 300 601 277 601C254 601 231 601 207.8 601C184.7 601 161.3 601 138.2 601C115 601 92 601 69 601C46 601 23 601 11.5 601L0 601Z" fill="#ffffff"></path></svg>