<svg id="visual" viewBox="0 0 900 600" width="900" height="600" xmlns="http://www.w3.org/2000/svg" xmlns:xlink="http://www.w3.org/1999/xlink" version="1.1"><path d="M0 513L12.5 510.8C25 508.7 50 504.3 75 505C100 505.7 125 511.3 150 511.5C175 511.7 200 506.3 225 504.8C250 503.3 275 505.7 300 509.8C325 514 350 520 375 518.8C400 517.7 425 509.3 450 506.7C475 504 500 507 525 507.8C550 508.7 575 507.3 600 510.8C625 514.3 650 522.7 675 521.8C700 521 725 511 750 509.5C775 508 800 515 825 515.3C850 515.7 875 509.3 887.5 506.2L900 503L900 601L887.5 601C875 601 850 601 825 601C800 601 775 601 750 601C725 601 700 601 675 601C650 601 625 601 600 601C575 601 550 601 525 601C500 601 475 601 450 601C425 601 400 601 375 601C350 601 325 601 300 601C275 601 250 601 225 601C200 601 175 601 150 601C125 601 100 601 75 601C50 601 25 601 12.5 601L0 601Z" fill="#3b327e"></path><path d="M0 544L12.5 543.2C25 542.3 50 540.7 75 539.7C100 538.7 125 538.3 150 536C175 533.7 200 529.3 225 526.2C250 523 275 521 300 519.5C325 518 350 517 375 518.2C400 519.3 425 522.7 450 527.8C475 533 500 540 525 540C550 540 575 533 600 530.3C625 527.7 650 529.3 675 527.5C700 525.7 725 520.3 750 521.2C775 522 800 529 825 529.7C850 530.3 875 524.7 887.5 521.8L900 519L900 601L887.5 601C875 601 850 601 825 601C800 601 775 601 750 601C725 601 700 601 675 601C650 601 625 601 600 601C575 601 550 601 525 601C500 601 475 601 450 601C425 601 400 601 375 601C350 601 325 601 300 601C275 601 250 601 225 601C200 601 175 601 150 601C125 601 100 601 75 601C50 601 25 601 12.5 601L0 601Z" fill="#6d609e"></path><path d="M0 548L12.5 546.3C25 544.7 50 541.3 75 541.2C100 541 125 544 150 546.5C175 549 200 551 225 549.3C250 547.7 275 542.3 300 542.3C325 542.3 350 547.7 375 550.3C400 553 425 553 450 552.8C475 552.7 500 552.3 525 549.5C550 546.7 575 541.3 600 542.7C625 544 650 552 675 553.7C700 555.3 725 550.7 750 550.2C775 549.7 800 553.3 825 551.5C850 549.7 875 542.3 887.5 538.7L900 535L900 601L887.5 601C875 601 850 601 825 601C800 601 775 601 750 601C725 601 700 601 675 601C650 601 625 601 600 601C575 601 550 601 525 601C500 601 475 601 450 601C425 601 400 601 375 601C350 601 325 601 300 601C275 601 250 601 225 601C200 601 175 601 150 601C125 601 100 601 75 601C50 601 25 601 12.5 601L0 601Z" fill="#9d92be"></path><path d="M0 553L12.5 555.2C25 557.3 50 561.7 75 564C100 566.3 125 566.7 150 564.7C175 562.7 200 558.3 225 558.5C250 558.7 275 563.3 300 565.7C325 568 350 568 375 567.8C400 567.7 425 567.3 450 564.7C475 562 500 557 525 555.5C550 554 575 556 600 559.2C625 562.3 650 566.7 675 566C700 565.3 725 559.7 750 557.2C775 554.7 800 555.3 825 556.7C850 558 875 560 887.5 561L900 562L900 601L887.5 601C875 601 850 601 825 601C800 601 775 601 750 601C725 601 700 601 675 601C650 601 625 601 600 601C575 601 550 601 525 601C500 601 475 601 450 601C425 601 400 601 375 601C350 601 325 601 300 601C275 601 250 601 225 601C200 601 175 601 150 601C125 601 100 601 75 601C50 601 25 601 12.5 601L0 601Z" fill="#cec7de"></path><path d="M0 589L12.5 588.5C25 588 50 587 75 584.7C100 582.3 125 578.7 150 576.8C175 575 200 575 225 576.3C250 577.7 275 580.3 300 582.3C325 584.3 350 585.7 375 586.2C400 586.7 425 586.3 450 586.5C475 586.7 500 587.3 525 585.7C550 584 575 580 600 578.3C625 576.7 650 577.3 675 579.5C700 581.7 725 585.3 750 586.7C775 588 800 587 825 584.3C850 581.7 875 577.3 887.5 575.2L900 573L900 601L887.5 601C875 601 850 601 825 601C800 601 775 601 750 601C725 601 700 601 675 601C650 601 625 601 600 601C575 601 550 601 525 601C500 601 475 601 450 601C425 601 400 601 375 601C350 601 325 601 300 601C275 601 250 601 225 601C200 601 175 601 150 601C125 601 100 601 75 601C50 601 25 601 12.5 601L0 601Z" fill="#ffffff"></path></svg>